<svg width="24px" height="28px" viewBox="0 0 24 28" version="1.1" xmlns="http://www.w3.org/2000/svg" xmlns:xlink="http://www.w3.org/1999/xlink">
    <!-- Generator: Sketch 43.2 (39069) - http://www.bohemiancoding.com/sketch -->
    <desc>Created with Sketch.</desc>
    <defs></defs>
    <g id="Page-1" stroke="none" stroke-width="1" fill="none" fill-rule="evenodd">
        <g id="logo">
            <polygon id="Shape" fill="#FFFFFF" fill-rule="nonzero" points="3.886 3.945 21.03 3.945 21.03 19.992 3.886 19.992"></polygon>
            <path d="M0,2.005 C0,0.898 0.897,0 2.005,0 L21.995,0 C23.102,0 24,0.897 24,2.005 L24,21.995 C24,22.5267591 23.7887595,23.0367387 23.4127491,23.4127491 C23.0367387,23.7887595 22.5267591,24 21.995,24 L2.005,24 C0.897669077,24 1.35608927e-16,23.1023309 0,21.995 L0,2.005 Z M9,24 L15,24 L12,28 L9,24 Z M7.008,4 L4,4 L4,20 L7.008,20 L7.008,15.003 C7.008,12.005 8.168,12.01 9,12 C10,12.007 11.019,12.06 11.019,14.003 L11.019,20 L14.027,20 L14.027,13.109 C14.027,10 12,9.003 10,9.003 C8.01,9.003 8,9.003 7.008,11.002 L7.008,4 Z M19,19.987 C20.105,19.987 21,19.094 21,17.993 C20.9977929,16.8904776 20.1025233,15.9983415 19,16 C17.895,16 17,16.892 17,17.993 C17,19.094 17.895,19.987 19,19.987 Z" id="Shape" fill="#3F3F3F"></path>
        </g>
    </g>
</svg>
